# MagicaVoxel @ Ephtracy

# group
o hand

# material
mtllib bow_arrow.mtl
usemtl palette

# normals
vn -1 0 0
vn 1 0 0
vn 0 0 1
vn 0 0 -1
vn 0 -1 0
vn 0 1 0

# texcoords
vt 0.251953 0.5
vt 0.259766 0.5
vt 0.279297 0.5

# verts
v -0.3 -0.2 0.1
v -0.3 -0.2 0
v -0.3 -0.1 0.1
v -0.3 -0.1 0
v -0.2 -0.3 0.1
v -0.2 -0.3 0
v -0.2 -0.2 0.1
v -0.2 -0.2 0
v -0.2 -0.1 0.1
v -0.2 -0.1 0
v -0.2 0 0.1
v -0.2 0 0
v -0.1 -0.3 0.1
v -0.1 -0.3 0
v -0.1 -0.2 0.1
v -0.1 -0.2 0
v -0.1 -0.1 0.1
v -0.1 -0.1 0
v -0.1 0 0.1
v -0.1 0 0
v 0.5 -0.2 0.1
v 0.5 -0.2 0
v 0.5 -0.1 0.1
v 0.5 -0.1 0
v -0.3 -0.2 0.1
v -0.3 -0.1 0.1
v -0.2 -0.3 0.1
v -0.2 -0.2 0.1
v -0.2 -0.1 0.1
v -0.2 0 0.1
v -0.1 -0.3 0.1
v -0.1 -0.2 0.1
v -0.1 -0.1 0.1
v -0.1 0 0.1
v 0.4 -0.2 0.1
v 0.4 -0.1 0.1
v 0.5 -0.2 0.1
v 0.5 -0.1 0.1
v -0.3 -0.2 0
v -0.3 -0.1 0
v -0.2 -0.3 0
v -0.2 -0.2 0
v -0.2 -0.1 0
v -0.2 0 0
v -0.1 -0.3 0
v -0.1 -0.2 0
v -0.1 -0.1 0
v -0.1 0 0
v 0.4 -0.2 0
v 0.4 -0.1 0
v 0.5 -0.2 0
v 0.5 -0.1 0
v -0.2 -0.3 0.1
v -0.1 -0.3 0.1
v -0.2 -0.3 0
v -0.1 -0.3 0
v -0.3 -0.2 0.1
v -0.2 -0.2 0.1
v -0.1 -0.2 0.1
v 0.4 -0.2 0.1
v 0.5 -0.2 0.1
v -0.3 -0.2 0
v -0.2 -0.2 0
v -0.1 -0.2 0
v 0.4 -0.2 0
v 0.5 -0.2 0
v -0.3 -0.1 0.1
v -0.2 -0.1 0.1
v -0.1 -0.1 0.1
v 0.4 -0.1 0.1
v 0.5 -0.1 0.1
v -0.3 -0.1 0
v -0.2 -0.1 0
v -0.1 -0.1 0
v 0.4 -0.1 0
v 0.5 -0.1 0
v -0.2 0 0.1
v -0.1 0 0.1
v -0.2 0 0
v -0.1 0 0

# faces
f 3/3/1 2/3/1 1/3/1
f 4/3/1 2/3/1 3/3/1
f 7/3/1 6/3/1 5/3/1
f 8/3/1 6/3/1 7/3/1
f 11/3/1 10/3/1 9/3/1
f 12/3/1 10/3/1 11/3/1
f 13/3/2 14/3/2 15/3/2
f 15/3/2 14/3/2 16/3/2
f 17/3/2 18/3/2 19/3/2
f 19/3/2 18/3/2 20/3/2
f 21/1/2 22/1/2 23/1/2
f 23/1/2 22/1/2 24/1/2
f 28/3/3 26/3/3 25/3/3
f 29/3/3 26/3/3 28/3/3
f 31/3/3 28/3/3 27/3/3
f 32/2/3 29/2/3 28/2/3
f 32/3/3 28/3/3 31/3/3
f 33/3/3 30/3/3 29/3/3
f 33/2/3 29/2/3 32/2/3
f 34/3/3 30/3/3 33/3/3
f 35/2/3 33/2/3 32/2/3
f 36/2/3 33/2/3 35/2/3
f 37/1/3 36/1/3 35/1/3
f 38/1/3 36/1/3 37/1/3
f 39/3/4 40/3/4 42/3/4
f 42/3/4 40/3/4 43/3/4
f 41/3/4 42/3/4 45/3/4
f 42/2/4 43/2/4 46/2/4
f 45/3/4 42/3/4 46/3/4
f 43/3/4 44/3/4 47/3/4
f 46/2/4 43/2/4 47/2/4
f 47/3/4 44/3/4 48/3/4
f 46/2/4 47/2/4 49/2/4
f 49/2/4 47/2/4 50/2/4
f 49/1/4 50/1/4 51/1/4
f 51/1/4 50/1/4 52/1/4
f 55/3/5 54/3/5 53/3/5
f 56/3/5 54/3/5 55/3/5
f 62/3/5 58/3/5 57/3/5
f 63/3/5 58/3/5 62/3/5
f 64/2/5 60/2/5 59/2/5
f 65/1/5 61/1/5 60/1/5
f 65/2/5 60/2/5 64/2/5
f 66/1/5 61/1/5 65/1/5
f 67/3/6 68/3/6 72/3/6
f 72/3/6 68/3/6 73/3/6
f 69/2/6 70/2/6 74/2/6
f 70/1/6 71/1/6 75/1/6
f 74/2/6 70/2/6 75/2/6
f 75/1/6 71/1/6 76/1/6
f 77/3/6 78/3/6 79/3/6
f 79/3/6 78/3/6 80/3/6
